<?xml version="1.0" encoding="UTF-8"?>
<!-- Created with Inkscape (http://www.inkscape.org/) -->
<svg width="100" height="100" version="1.1" viewBox="0 0 100 100" xmlns="http://www.w3.org/2000/svg">
 <g transform="matrix(3.8177 0 0 3.8177 -.50443 -1.4531)" fill="currentColor" stroke-width=".034109">
  <path d="m11.164 12.529c-0.95697-0.74494-1.8711-0.73376-2.7427-0.008218-0.3929 0.32714-0.56764 0.14452-0.39028-0.29989 0.17655-0.44192 0.39805-0.81797 0.67853-1.1078 1.1843-1.224 2.2668-0.13047 2.7849 1.0861 0.16553 0.38857 0.07947 0.64889-0.33052 0.3298z"/>
  <path d="m18.087 12.529c-0.95707-0.74494-1.8712-0.73376-2.7427-0.0082-0.3929 0.32714-0.56775 0.14452-0.39028-0.29989 0.17655-0.44192 0.39805-0.81797 0.67853-1.1078 1.1843-1.224 2.2667-0.13047 2.7849 1.0861 0.16546 0.38857 0.07937 0.64889-0.33052 0.3298z"/>
 </g>
</svg>
